<svg width="24" height="24" viewBox="0 0 24 24" fill="none" xmlns="http://www.w3.org/2000/svg">
<path d="M24 12C24 18.6274 18.6274 24 12 24C5.37262 24 0 18.6274 0 12C0 12.0028 12 0.00135937 12 0C18.6274 0 24 5.37262 24 12Z" fill="#0052B4"/>
<path d="M12.0001 0C11.9994 0 11.9987 4.6875e-05 11.998 4.6875e-05L12.0001 0Z" fill="#F0F0F0"/>
<path d="M11.968 12.0001H12.0001C12.0001 11.9892 12.0001 11.9788 12.0001 11.968C11.9894 11.9787 11.9788 11.9894 11.968 12.0001Z" fill="#F0F0F0"/>
<path d="M12 6.26187C12 4.15038 12 2.76677 12 0.00100708H11.998C5.3715 0.0020852 0 5.37419 0 12.001H6.26086V8.4754L9.78642 12.001H11.9679C11.9787 11.9903 11.9894 11.9796 12 11.9688C12 11.1604 12 10.439 12 9.78748L8.47444 6.26187H12Z" fill="#F0F0F0"/>
<path d="M6.071 1.56509C4.19417 2.6338 2.63389 4.19408 1.56519 6.07091V11.9999H4.69564V4.69559V4.69555H12C12 3.70822 12 2.76763 12 1.56509H6.071Z" fill="#D80027"/>
<path d="M11.9998 10.524L7.73641 6.26064H6.26074C6.26074 6.26059 6.26074 6.26064 6.26074 6.26064L11.9998 11.9997H11.9998C11.9998 11.9997 11.9998 10.9823 11.9998 10.524Z" fill="#D80027"/>
<path d="M7.23729 14.087L7.89588 15.4641L9.38309 15.1204L8.71709 16.4939L9.91305 17.4423L8.42398 17.7779L8.42815 19.3044L7.23729 18.3494L6.04648 19.3044L6.05065 17.7779L4.56152 17.4423L5.75754 16.4939L5.09145 15.1204L6.57874 15.4641L7.23729 14.087Z" fill="#F0F0F0"/>
<path d="M17.9663 16.6954L18.2956 17.3839L19.0392 17.212L18.7062 17.8988L19.3042 18.373L18.5596 18.5408L18.5617 19.3041L17.9663 18.8265L17.3709 19.3041L17.3729 18.5408L16.6284 18.373L17.2264 17.8988L16.8934 17.212L17.637 17.3839L17.9663 16.6954Z" fill="#F0F0F0"/>
<path d="M14.9031 9.39119L15.2323 10.0798L15.976 9.90785L15.643 10.5946L16.241 11.0689L15.4964 11.2367L15.4985 11.9999L14.9031 11.5224L14.3077 11.9999L14.3097 11.2367L13.5652 11.0689L14.1632 10.5946L13.8302 9.90785L14.5738 10.0798L14.9031 9.39119Z" fill="#F0F0F0"/>
<path d="M17.9663 5.21719L18.2956 5.90579L19.0392 5.7339L18.7062 6.42066L19.3041 6.89485L18.5596 7.06271L18.5617 7.82593L17.9663 7.34841L17.3709 7.82593L17.3729 7.06271L16.6284 6.89485L17.2264 6.42066L16.8934 5.7339L17.637 5.90579L17.9663 5.21719Z" fill="#F0F0F0"/>
<path d="M20.6424 8.34746L20.9716 9.03605L21.7152 8.86411L21.3822 9.55088L21.9802 10.0251L21.2356 10.193L21.2377 10.9561L20.6424 10.4787L20.0469 10.9561L20.049 10.193L19.3044 10.0251L19.9024 9.55088L19.5694 8.86411L20.313 9.03605L20.6424 8.34746Z" fill="#F0F0F0"/>
<path d="M18.7288 12L18.9878 12.7972H19.826L19.1479 13.2899L19.4069 14.087L18.7288 13.5943L18.0507 14.087L18.3097 13.2899L17.6316 12.7972H18.4698L18.7288 12Z" fill="#F0F0F0"/>
</svg>
