<svg width="24" height="24" viewBox="0 0 24 24" fill="none" xmlns="http://www.w3.org/2000/svg">
<path d="M12 24C18.6274 24 24 18.6274 24 12C24 5.37258 18.6274 0 12 0C5.37258 0 0 5.37258 0 12C0 18.6274 5.37258 24 12 24Z" fill="#F0F0F0"/>
<path d="M23.9999 12.0001C23.9999 7.24261 21.2312 3.13186 17.2173 1.19086V22.8094C21.2312 20.8684 23.9999 16.7577 23.9999 12.0001Z" fill="#D80027"/>
<path d="M0 12.0001C0 16.7577 2.76867 20.8684 6.78262 22.8094V1.19086C2.76867 3.13186 0 7.24261 0 12.0001Z" fill="#D80027"/>
<path d="M14.087 13.5653L16.174 12.5218L15.1305 12.0001V10.9566L13.0435 12.0001L14.087 9.9131H13.0435L12.0001 8.3479L10.9566 9.9131H9.91309L10.9566 12.0001L8.86961 10.9566V12.0001L7.82617 12.5218L9.91309 13.5653L9.39138 14.6088H11.4783V16.174H12.5218V14.6088H14.6088L14.087 13.5653Z" fill="#D80027"/>
</svg>
