<svg width="24" height="24" viewBox="0 0 24 24" fill="none" xmlns="http://www.w3.org/2000/svg">
<path d="M12 24C18.6274 24 24 18.6274 24 12C24 5.37258 18.6274 0 12 0C5.37258 0 0 5.37258 0 12C0 18.6274 5.37258 24 12 24Z" fill="#F0F0F0"/>
<path d="M2.48056 4.69455C1.53796 5.92094 0.827189 7.33446 0.41333 8.87003H6.65605L2.48056 4.69455Z" fill="#0052B4"/>
<path d="M23.5866 8.8696C23.1728 7.33406 22.4619 5.92055 21.5194 4.69415L17.344 8.8696H23.5866Z" fill="#0052B4"/>
<path d="M0.41333 15.1308C0.827236 16.6663 1.538 18.0798 2.48056 19.3062L6.65591 15.1308H0.41333Z" fill="#0052B4"/>
<path d="M19.3056 2.48083C18.0792 1.53822 16.6657 0.82745 15.1301 0.413544V6.65622L19.3056 2.48083Z" fill="#0052B4"/>
<path d="M4.69409 21.5195C5.92048 22.4621 7.334 23.1728 8.86953 23.5867V17.3441L4.69409 21.5195Z" fill="#0052B4"/>
<path d="M8.86948 0.413544C7.33395 0.82745 5.92044 1.53822 4.69409 2.48078L8.86948 6.65617V0.413544Z" fill="#0052B4"/>
<path d="M15.1304 23.5867C16.6659 23.1728 18.0794 22.4621 19.3058 21.5195L15.1304 17.3441V23.5867Z" fill="#0052B4"/>
<path d="M17.344 15.1308L21.5194 19.3062C22.4619 18.0799 23.1728 16.6663 23.5866 15.1308H17.344Z" fill="#0052B4"/>
<path d="M23.8984 10.4348H13.5653H13.5652V0.101578C13.0529 0.034875 12.5305 0 12 0C11.4694 0 10.9471 0.034875 10.4348 0.101578V10.4347V10.4348H0.101578C0.034875 10.9471 0 11.4695 0 12C0 12.5306 0.034875 13.0529 0.101578 13.5652H10.4347H10.4348V23.8984C10.9471 23.9651 11.4694 24 12 24C12.5305 24 13.0529 23.9652 13.5652 23.8984V13.5653V13.5652H23.8984C23.9651 13.0529 24 12.5306 24 12C24 11.4695 23.9651 10.9471 23.8984 10.4348V10.4348Z" fill="#D80027"/>
<path d="M15.1304 15.1303L20.4852 20.4851C20.7315 20.2389 20.9664 19.9815 21.1906 19.7147L16.6061 15.1302H15.1304V15.1303Z" fill="#D80027"/>
<path d="M8.8695 15.1303H8.86941L3.51465 20.4851C3.76084 20.7314 4.01823 20.9663 4.28504 21.1905L8.8695 16.6059V15.1303Z" fill="#D80027"/>
<path d="M8.86951 8.86967V8.86958L3.5147 3.51471C3.26842 3.7609 3.03348 4.01829 2.80933 4.2851L7.39384 8.86962H8.86951V8.86967Z" fill="#D80027"/>
<path d="M15.1304 8.86956L20.4852 3.51465C20.239 3.26837 19.9817 3.03344 19.7148 2.80933L15.1304 7.39384V8.86956Z" fill="#D80027"/>
</svg>
